<svg width="512" height="512" viewBox="0 0 512 512" fill="none" xmlns="http://www.w3.org/2000/svg">
<rect width="512" height="512" rx="128" fill="white"/>
<mask id="mask0_4348_2" style="mask-type:luminance" maskUnits="userSpaceOnUse" x="239" y="166" width="119" height="106">
<path d="M239.612 166H357.777V271.172H239.612V166Z" fill="white"/>
</mask>
<g mask="url(#mask0_4348_2)">
<path d="M355.315 240.364C324.685 228.107 295.913 218.13 266.952 215.12C269.852 214.415 272.68 213.443 275.343 212.127C290.8 204.481 294.813 189.179 284.291 177.938C276.645 169.767 263.413 166.017 250.82 167.514C238.476 187.408 239.648 205.96 245.672 224.297C251.329 241.533 262.076 257.677 281.936 270.974C300.932 247.434 325.833 235.341 355.315 240.364Z" fill="#854FDC" fill-opacity="0.9"/>
</g>
<mask id="mask1_4348_2" style="mask-type:luminance" maskUnits="userSpaceOnUse" x="154" y="166" width="129" height="145">
<path d="M154.776 166H282.03V310.805H154.776V166Z" fill="white"/>
</mask>
<g mask="url(#mask1_4348_2)">
<path d="M250.82 167.514C246.098 168.073 241.459 169.346 237.245 171.427C221.776 179.073 217.776 194.383 228.286 205.616C232.038 209.615 237.127 212.54 242.808 214.337C215.515 215.473 187.56 223.841 157.262 243.331C157.262 243.331 212.971 222.138 245.625 305.344C247.885 311.106 259.07 311.227 261.555 305.498C267.283 292.313 274.101 280.676 281.936 270.974C247.589 243.305 235.091 203.904 250.82 167.514Z" fill="#854FDC"/>
</g>
<path d="M399.508 295.418C413.013 299.452 428.47 294.756 434.009 284.942C439.559 275.12 433.109 263.896 419.593 259.862C406.089 255.837 390.632 260.524 385.081 270.338C383.116 273.838 382.69 277.502 383.519 280.968C370.748 268.54 351.22 258.898 320.708 252.947C320.708 252.947 348.817 264.24 327.526 295.693C338.154 302.333 349.042 305.593 360.44 307.33C373.352 309.291 384.182 308.689 400.006 306.032C398.147 301.396 395.946 296.94 393.212 292.735C395.094 293.81 397.189 294.73 399.508 295.418Z" fill="#FC516B" fill-opacity="0.8"/>
<mask id="mask2_4348_2" style="mask-type:luminance" maskUnits="userSpaceOnUse" x="303" y="295" width="107" height="51">
<path d="M303.239 295.392H409.284V346H303.239V295.392Z" fill="white"/>
</mask>
<g mask="url(#mask2_4348_2)">
<path d="M327.525 295.693C323.04 302.316 316.365 309.833 306.766 318.331C301.665 322.855 307.535 329.469 315.311 327.998C361.671 319.208 397.484 323.526 408.61 345.441C407.024 331.198 404.763 317.953 400.005 306.032C375.755 307.124 350.853 303.838 327.525 295.693Z" fill="#FC516B"/>
</g>
<mask id="mask3_4348_2" style="mask-type:luminance" maskUnits="userSpaceOnUse" x="76" y="251" width="134" height="96">
<path d="M76 251.356H209.314V346H76V251.356Z" fill="white"/>
</mask>
<g mask="url(#mask3_4348_2)">
<path d="M191.88 252.947C161.357 258.898 141.828 268.54 129.058 280.968C129.898 277.502 129.472 273.838 127.496 270.338C121.945 260.524 106.5 255.837 92.9837 259.862C79.4796 263.896 73.0174 275.12 78.5682 284.942C84.119 294.756 99.5642 299.452 113.08 295.418C115.4 294.73 117.495 293.81 119.365 292.735C109.601 307.743 106.168 325.659 103.967 345.441C115.092 323.526 150.906 319.208 197.265 327.998C205.053 329.478 210.912 322.846 205.799 318.322C150.669 269.495 191.88 252.947 191.88 252.947Z" fill="#5E4DFF"/>
</g>
</svg>
